<svg xmlns="http://www.w3.org/2000/svg" width="198" height="226" viewBox="0 0 198 226">
  <metadata><?xpacket begin="﻿" id="W5M0MpCehiHzreSzNTczkc9d"?>
<x:xmpmeta xmlns:x="adobe:ns:meta/" x:xmptk="Adobe XMP Core 5.6-c140 79.160451, 2017/05/06-01:08:21        ">
   <rdf:RDF xmlns:rdf="http://www.w3.org/1999/02/22-rdf-syntax-ns#">
      <rdf:Description rdf:about=""/>
   </rdf:RDF>
</x:xmpmeta>
                                                                                                    
                                                                                                    
                                                                                                    
                                                                                                    
                                                                                                    
                                                                                                    
                                                                                                    
                                                                                                    
                                                                                                    
                                                                                                    
                                                                                                    
                                                                                                    
                                                                                                    
                                                                                                    
                                                                                                    
                                                                                                    
                                                                                                    
                                                                                                    
                                                                                                    
                                                                                                    
                           
<?xpacket end="w"?></metadata>
<defs>
    <style>
      .cls-1 {
        fill: #333;
        fill-rule: evenodd;
      }
    </style>
  </defs>
  <path class="cls-1" d="M94.631-1c14.306-.213,93.689,32.993,98.518,40.022,11.033,13.008-.534,42.095,1.99,60.033,10.4,73.9-29.1,114.38-84.586,126.07-12.891,2.715-26.411-1.614-34.83-4C25.66,206.917,1.091,172.951,1.088,108.06c0-13.736-3.443-59.436,1.99-67.037C11.767,25.63,78.1,12.184,94.631-1Zm0,8C79.964,15.1,17.115,34.561,11.04,44.025c-7.239,11.276-1.075,33.4-1,48.026,0.364,66.565,10.492,101.161,56.723,120.066,57.045,23.328,104.241-16.745,116.43-57.031,5.242-17.323,2.832-34.761,5.971-56.031,2.359-15.987,3.486-38.96,0-54.03C174.588,34.834,115.973,7.2,94.631,7Zm-1,44.024c16.765-.948,32,8.14,26.868,25.014h-1c-9.9-5.2-8.772-16.426-22.888-18.01C89,63.386,85.883,67.152,81.694,76.042H77.714l-1-1C76.721,59.352,83.989,56.833,93.636,51.029ZM62.787,121.067c-11.458.251-26.459,1.089-34.83-2v-3l1.99-2,32.839-1v-8l-12.937-2-5.971-7c-1.9-5.7-1.987-12.431-1-19.01l4.976-1c2.829,5.537,3.816,16.054,6.966,21.012H60.8c7.413-10.668,48.122-22.016,67.669-11.006,6.609,3.722,4.393,9.375,14.927,11.006,2.96-4.838,4.117-16.371,7.961-21.012l3.981,2q-1,10.5-1.991,21.012c-5.281,3.45-10.62,4.8-17.912,7q0.5,4,.995,8c9.142-2.655,24.894-.963,32.84,1q0.5,1,1,2-1,1.5-1.991,3l-32.839,2q0.5,4,.995,8c8.773,0.324,14.95,1.579,17.913,8,3.679,5.943,2.906,14.575,0,20.011h-2.986c-2.609-8-3.855-15.24-7.961-21.012-6.867.167-7.234,1.363-10.946,4-6.906,18.609-38.953,27.636-57.718,13.007L61.791,138.077c-5.959.125-6.674,0.935-9.951,3l-2.985,17.01c-4.5-.86-2.961.116-4.976-3-8.363-17.507,7.9-24.832,18.908-25.014v-9.005ZM96.621,92.051c-10.915-.6-18.594-1.289-25.873,3-4.45,28.77-.6,51.432,19.9,59.032l5.971-4V92.051Zm6.966,0v62.034h0.995c19.134-5.62,35.85-37.627,20.9-61.033C118.219,91.346,112.436,91.721,103.587,92.051Z"/>
</svg>
